<svg xmlns="http://www.w3.org/2000/svg" version="1.1" xmlns:xlink="http://www.w3.org/1999/xlink" xmlns:svgjs="http://svgjs.dev/svgjs" width="1500" height="1505" viewBox="0 0 1500 1505"><g transform="matrix(1,0,0,1,0,-2.6772113512766964)"><svg viewBox="0 0 280 281" data-background-color="#242424" preserveAspectRatio="xMidYMid meet" height="1505" width="1500" xmlns="http://www.w3.org/2000/svg" xmlns:xlink="http://www.w3.org/1999/xlink"><g id="tight-bounds" transform="matrix(1,0,0,1,0,0.5001352892300588)"><svg viewBox="0 0 280 280" height="280" width="280"><g><svg viewBox="0 0 280 280" height="280" width="280"><g><svg viewBox="0 0 280 280" height="280" width="280"><g id="textblocktransform"><svg viewBox="0 0 280 280" height="280" width="280" id="textblock"><g><svg viewBox="0 0 280 280" height="280" width="280"><g transform="matrix(1,0,0,1,74.00336708925556,116.00095774599345)"><svg viewBox="0 0 131.99326582148888 47.998084508013115" height="47.998084508013115" width="131.99326582148888"><g id="icon-0"><svg xmlns="http://www.w3.org/2000/svg" xmlns:xlink="http://www.w3.org/1999/xlink" version="1.1" x="0" y="0" viewBox="5.393 33.636 90.001 32.728" enable-background="new 0 0 100 100" xml:space="preserve" height="47.998084508013115" width="131.99326582148888" class="icon-jxe-0" data-fill-palette-color="accent" id="jxe-0"><path d="M20.943 62.776V64.196H21.761C29.588 64.196 35.957 57.828 35.957 50S29.589 35.804 21.761 35.804H20.943V37.224C14.254 37.647 8.957 43.203 8.957 50S14.254 62.353 20.943 62.776M20.943 37.608V38.97H21.761C27.843 38.97 32.791 43.918 32.791 50.001 32.791 56.083 27.843 61.031 21.761 61.031H20.943V62.393C14.465 61.971 9.34 56.586 9.34 50S14.465 38.029 20.943 37.608M21.757 66.364H79.03C88.067 66.364 95.394 59.038 95.394 50S88.068 33.636 79.03 33.636H21.757C12.719 33.636 5.393 40.962 5.393 50S12.719 66.364 21.757 66.364M21.762 34.046C30.367 34.046 37.378 40.86 37.701 49.387H84.787V49.3L77.126 43.798 76.966 43.531 77.055 43.192 77.324 42.838 77.633 42.667 77.927 42.747 87.492 49.699 87.637 50 87.492 50.303 77.927 57.254 77.634 57.334 77.324 57.163 77.055 56.809 76.966 56.469 77.127 56.201 84.787 50.669V50.613H37.701C37.378 59.14 30.368 65.954 21.762 65.954 12.95 65.955 5.807 58.812 5.807 50 5.807 41.189 12.95 34.046 21.762 34.046" fill="#c9ad8b" data-fill-palette-color="accent"></path></svg></g></svg></g><g id="text-0"><path d="M21.991 99.234l11.409 3.992-2.524 7.214-26.162-9.154 6.574-18.791 3.345 1.171-4.05 11.577 8.082 2.827 3.129-8.942 3.326 1.164z" fill="#d5b263" data-fill-palette-color="primary"></path><path d="M47.964 56.903v0c0.932 0.682 1.718 1.446 2.36 2.291 0.632 0.847 1.134 1.746 1.508 2.699 0.373 0.943 0.608 1.929 0.706 2.958 0.098 1.028 0.068 2.053-0.091 3.074-0.158 1.021-0.442 2.028-0.85 3.021-0.412 0.999-0.944 1.943-1.594 2.832v0c-0.651 0.889-1.386 1.676-2.206 2.361-0.824 0.689-1.698 1.264-2.623 1.723-0.925 0.46-1.893 0.798-2.903 1.016-1.006 0.212-2.017 0.286-3.033 0.222-1.021-0.069-2.031-0.281-3.03-0.636-1.009-0.354-1.974-0.868-2.895-1.543v0c-0.921-0.674-1.7-1.437-2.338-2.287-0.646-0.849-1.154-1.748-1.522-2.697-0.374-0.953-0.612-1.94-0.714-2.963-0.098-1.028-0.068-2.053 0.091-3.074 0.158-1.021 0.444-2.026 0.858-3.016 0.404-0.988 0.932-1.927 1.582-2.816v0c0.651-0.889 1.39-1.681 2.218-2.376 0.818-0.693 1.69-1.27 2.615-1.73 0.925-0.46 1.893-0.798 2.903-1.015 1.01-0.218 2.023-0.29 3.041-0.216 1.016 0.065 2.028 0.274 3.036 0.628 0.999 0.355 1.96 0.87 2.881 1.544zM44.053 62.247v0c-0.495-0.362-1.039-0.72-1.632-1.072-0.597-0.347-1.21-0.648-1.84-0.905-0.63-0.257-1.278-0.449-1.945-0.577-0.661-0.124-1.301-0.15-1.918-0.079-0.617 0.072-1.213 0.266-1.787 0.581-0.571 0.31-1.088 0.782-1.552 1.416v0c-0.44 0.602-0.716 1.218-0.825 1.85-0.114 0.636-0.109 1.266 0.016 1.888 0.125 0.623 0.349 1.233 0.672 1.83 0.328 0.591 0.703 1.157 1.127 1.695 0.433 0.537 0.899 1.034 1.399 1.491 0.496 0.461 0.982 0.866 1.456 1.212v0c0.479 0.351 1.014 0.693 1.604 1.027 0.586 0.339 1.201 0.633 1.844 0.883 0.647 0.245 1.299 0.432 1.957 0.562 0.667 0.128 1.316 0.158 1.947 0.088 0.631-0.069 1.231-0.257 1.797-0.562 0.568-0.296 1.072-0.744 1.513-1.346v0c0.456-0.623 0.746-1.253 0.869-1.891 0.132-0.639 0.139-1.268 0.019-1.887-0.119-0.619-0.34-1.222-0.662-1.81-0.317-0.584-0.694-1.142-1.131-1.674-0.437-0.532-0.908-1.028-1.413-1.488-0.51-0.455-1.015-0.865-1.515-1.232z" fill="#d5b263" data-fill-palette-color="primary"></path><path d="M78.81 32.473v0c0.673 0.938 1.183 1.909 1.529 2.912 0.337 1.001 0.534 2.013 0.593 3.034 0.061 1.013-0.023 2.023-0.25 3.03-0.227 1.008-0.575 1.972-1.043 2.893-0.468 0.921-1.051 1.79-1.748 2.607-0.702 0.821-1.501 1.553-2.397 2.195v0c-0.895 0.643-1.839 1.161-2.831 1.557-0.997 0.399-2.007 0.673-3.029 0.821-1.022 0.149-2.047 0.169-3.075 0.062-1.022-0.111-2.006-0.356-2.951-0.734-0.949-0.383-1.843-0.899-2.682-1.547-0.848-0.65-1.605-1.439-2.271-2.367v0c-0.666-0.928-1.169-1.895-1.51-2.901-0.35-1.008-0.552-2.02-0.607-3.037-0.059-1.022 0.022-2.035 0.244-3.039 0.227-1.008 0.575-1.972 1.043-2.893 0.468-0.921 1.053-1.787 1.754-2.598 0.692-0.813 1.485-1.541 2.381-2.184v0c0.895-0.643 1.844-1.165 2.847-1.568 0.993-0.404 2.001-0.681 3.024-0.829 1.022-0.149 2.047-0.169 3.074-0.062 1.027 0.107 2.013 0.355 2.957 0.742 0.945 0.378 1.842 0.892 2.691 1.541 0.839 0.649 1.592 1.437 2.257 2.365zM73.429 36.334v0c-0.358-0.499-0.764-1.008-1.217-1.527-0.459-0.515-0.948-0.993-1.467-1.433-0.519-0.44-1.075-0.825-1.669-1.154-0.59-0.324-1.189-0.548-1.798-0.671-0.609-0.124-1.235-0.125-1.879-0.004-0.639 0.117-1.277 0.405-1.915 0.862v0c-0.606 0.435-1.059 0.935-1.361 1.501-0.306 0.569-0.497 1.169-0.572 1.799-0.075 0.631-0.052 1.28 0.07 1.948 0.127 0.664 0.308 1.318 0.542 1.963 0.244 0.645 0.532 1.263 0.866 1.852 0.328 0.593 0.663 1.128 1.006 1.605v0c0.346 0.483 0.748 0.974 1.205 1.475 0.451 0.505 0.944 0.976 1.477 1.413 0.539 0.434 1.1 0.815 1.685 1.143 0.594 0.329 1.201 0.559 1.823 0.69 0.622 0.131 1.249 0.139 1.883 0.026 0.632-0.104 1.251-0.374 1.856-0.809v0c0.627-0.45 1.099-0.959 1.415-1.527 0.325-0.566 0.527-1.162 0.606-1.787 0.079-0.625 0.057-1.268-0.066-1.926-0.12-0.653-0.304-1.301-0.554-1.943-0.249-0.642-0.542-1.26-0.879-1.854-0.343-0.591-0.695-1.138-1.057-1.642z" fill="#d5b263" data-fill-palette-color="primary"></path><path d="M108.776 0.73l9.306 28.952-2.384 0.766-4.23-3.714c-0.024 0.853-0.17 1.67-0.44 2.449-0.265 0.771-0.637 1.48-1.115 2.127-0.472 0.644-1.037 1.207-1.693 1.688-0.663 0.483-1.402 0.856-2.219 1.119v0c-1.615 0.519-3.15 0.694-4.605 0.523-1.453-0.164-2.78-0.604-3.98-1.32-1.199-0.71-2.247-1.662-3.144-2.857-0.897-1.195-1.593-2.562-2.088-4.102v0c-0.495-1.539-0.726-3.056-0.693-4.55 0.033-1.494 0.33-2.876 0.893-4.145 0.56-1.275 1.383-2.403 2.468-3.382 1.083-0.986 2.432-1.739 4.048-2.258v0c1.231-0.396 2.439-0.521 3.623-0.374 1.19 0.144 2.313 0.608 3.369 1.391v0l-3.318-10.319zM108.45 21.132v0c-0.158-0.49-0.365-1.016-0.621-1.578-0.263-0.56-0.57-1.116-0.922-1.669-0.355-0.544-0.748-1.056-1.179-1.534-0.439-0.483-0.915-0.884-1.427-1.205-0.518-0.319-1.068-0.53-1.65-0.635-0.573-0.1-1.177-0.048-1.811 0.156v0c-0.697 0.224-1.264 0.542-1.7 0.952-0.434 0.417-0.766 0.894-0.996 1.433-0.229 0.538-0.374 1.122-0.435 1.752-0.063 0.623-0.064 1.258-0.001 1.903 0.054 0.641 0.149 1.273 0.286 1.894 0.144 0.619 0.302 1.199 0.476 1.739v0c0.174 0.54 0.383 1.104 0.627 1.691 0.25 0.585 0.541 1.154 0.871 1.706 0.326 0.561 0.697 1.079 1.113 1.556 0.418 0.482 0.878 0.876 1.377 1.179 0.5 0.304 1.048 0.499 1.644 0.584 0.594 0.079 1.24 0.007 1.937-0.217v0c0.691-0.222 1.262-0.537 1.713-0.946 0.449-0.415 0.791-0.892 1.027-1.432 0.235-0.54 0.385-1.122 0.447-1.745 0.063-0.623 0.067-1.259 0.011-1.906-0.062-0.646-0.163-1.282-0.302-1.91-0.146-0.626-0.307-1.215-0.485-1.768z" fill="#d5b263" data-fill-palette-color="primary"></path><path d="M154.916 20.042v0c-0.012 1.194-0.171 2.245-0.477 3.153-0.313 0.908-0.746 1.692-1.301 2.353-0.548 0.668-1.197 1.222-1.947 1.664-0.75 0.441-1.566 0.793-2.446 1.054-0.88 0.255-1.813 0.437-2.798 0.546-0.984 0.102-1.981 0.148-2.991 0.138v0c-1.34-0.014-2.573-0.125-3.699-0.335-1.126-0.209-2.182-0.534-3.168-0.973-0.992-0.439-1.943-1.003-2.854-1.692-0.91-0.689-1.816-1.526-2.716-2.512v0l3.96-3.95c0.354 0.895 0.841 1.718 1.46 2.47 0.619 0.759 1.302 1.412 2.049 1.962 0.747 0.542 1.521 0.972 2.323 1.29 0.809 0.318 1.572 0.481 2.292 0.489v0c0.845 0.009 1.641-0.046 2.388-0.164 0.747-0.111 1.396-0.306 1.946-0.584 0.557-0.278 0.997-0.65 1.318-1.115 0.315-0.465 0.476-1.051 0.483-1.758v0c0.005-0.535-0.112-0.998-0.352-1.389-0.24-0.385-0.554-0.718-0.94-1-0.387-0.281-0.83-0.52-1.33-0.716-0.5-0.196-1.009-0.363-1.529-0.501-0.513-0.144-1.02-0.271-1.521-0.381-0.5-0.117-0.941-0.234-1.323-0.35v0c-0.757-0.225-1.546-0.468-2.368-0.727-0.816-0.259-1.621-0.554-2.417-0.886-0.789-0.325-1.537-0.702-2.245-1.132-0.708-0.423-1.33-0.921-1.866-1.494-0.529-0.58-0.951-1.247-1.267-2.002-0.316-0.749-0.469-1.612-0.459-2.589v0c0.012-1.168 0.168-2.203 0.468-3.104 0.3-0.901 0.717-1.682 1.251-2.343 0.528-0.661 1.154-1.216 1.878-1.664 0.724-0.455 1.516-0.813 2.377-1.075 0.867-0.268 1.783-0.46 2.748-0.576 0.971-0.109 1.965-0.158 2.981-0.148v0c1.386 0.014 2.645 0.156 3.778 0.425 1.132 0.269 2.178 0.646 3.136 1.13 0.959 0.485 1.834 1.061 2.626 1.73 0.798 0.668 1.547 1.408 2.244 2.22v0l-3.97 3.95c-0.301-0.927-0.718-1.766-1.251-2.518-0.54-0.751-1.141-1.394-1.802-1.929-0.661-0.541-1.356-0.961-2.086-1.258-0.73-0.298-1.434-0.45-2.114-0.457v0c-0.884-0.009-1.7 0.045-2.447 0.163-0.747 0.111-1.386 0.303-1.917 0.575-0.537 0.272-0.957 0.64-1.258 1.105-0.295 0.466-0.446 1.045-0.453 1.738v0c-0.006 0.554 0.099 1.024 0.312 1.409 0.214 0.385 0.501 0.715 0.861 0.989 0.367 0.274 0.78 0.5 1.241 0.676 0.46 0.176 0.934 0.333 1.42 0.47 0.494 0.13 0.981 0.248 1.462 0.351 0.481 0.097 0.919 0.207 1.313 0.33v0c0.77 0.226 1.576 0.465 2.419 0.718 0.849 0.253 1.681 0.545 2.495 0.876 0.822 0.338 1.6 0.722 2.335 1.153 0.741 0.43 1.393 0.941 1.954 1.534 0.555 0.586 0.997 1.264 1.326 2.033 0.322 0.769 0.478 1.645 0.468 2.628z" fill="#d5b263" data-fill-palette-color="primary"></path><path d="M184.146 23.231l-8.09 11.429-5.495-2.009 1.919-22.972 6.108 2.233-1.775 15.952 8.339-13.551 5.495 2.009-1.848 16.379 9.025-13.754 4.23 1.547-13.958 18.569-5.495-2.009z" fill="#d5b263" data-fill-palette-color="primary"></path><path d="M226.115 29.376v0c-0.281 0.399-0.622 0.724-1.024 0.974-0.402 0.25-0.826 0.412-1.273 0.485-0.445 0.082-0.899 0.074-1.361-0.025-0.463-0.099-0.894-0.289-1.293-0.571v0c-0.399-0.281-0.722-0.62-0.967-1.018-0.245-0.398-0.406-0.822-0.484-1.273-0.082-0.445-0.074-0.899 0.025-1.361 0.099-0.463 0.289-0.894 0.571-1.293v0c0.281-0.399 0.62-0.722 1.018-0.967 0.402-0.25 0.826-0.412 1.272-0.484 0.451-0.079 0.904-0.07 1.362 0.025 0.457 0.096 0.886 0.284 1.285 0.565v0c0.399 0.281 0.724 0.622 0.974 1.024 0.25 0.402 0.412 0.826 0.485 1.272 0.082 0.445 0.074 0.899-0.026 1.362-0.096 0.457-0.284 0.886-0.564 1.285zM222.783 33.616l-12.777 18.172-5.337-3.752 12.777-18.172z" fill="#d5b263" data-fill-palette-color="primary"></path><path d="M244.366 72.472v0c-1.237 1.042-2.552 1.831-3.947 2.367-1.395 0.536-2.788 0.787-4.181 0.753-1.398-0.031-2.756-0.362-4.074-0.995-1.323-0.628-2.531-1.591-3.624-2.888v0c-0.833-0.989-1.407-2.064-1.719-3.224-0.309-1.155-0.311-2.366-0.006-3.633v0l-9.872 8.317-4.19-4.974 24.847-20.933 1.613 1.916-1.832 5.323c0.794-0.307 1.603-0.483 2.427-0.53 0.829-0.051 1.631 0.02 2.406 0.213 0.779 0.198 1.514 0.511 2.203 0.94 0.699 0.43 1.324 0.973 1.877 1.628v0c1.093 1.297 1.839 2.649 2.238 4.056 0.4 1.406 0.496 2.801 0.289 4.183-0.202 1.378-0.686 2.709-1.452 3.993-0.765 1.283-1.766 2.446-3.003 3.488zM240.112 67.422v0c0.429-0.361 0.869-0.771 1.321-1.229 0.446-0.454 0.864-0.935 1.254-1.445 0.39-0.51 0.727-1.048 1.01-1.614 0.278-0.562 0.462-1.131 0.553-1.709 0.092-0.587 0.063-1.17-0.089-1.75-0.151-0.589-0.458-1.159-0.922-1.708v0c-0.48-0.57-0.993-0.98-1.539-1.228-0.55-0.253-1.119-0.386-1.708-0.399-0.593-0.018-1.188 0.06-1.783 0.234-0.596 0.183-1.181 0.421-1.755 0.714-0.569 0.298-1.117 0.63-1.644 0.998-0.533 0.371-1.019 0.742-1.458 1.111v0c-0.394 0.332-0.802 0.728-1.226 1.188-0.428 0.465-0.829 0.962-1.203 1.492-0.373 0.53-0.7 1.09-0.979 1.68-0.275 0.585-0.464 1.176-0.566 1.771-0.102 0.595-0.092 1.182 0.032 1.759 0.124 0.577 0.401 1.121 0.83 1.631v0c0.472 0.56 0.983 0.962 1.534 1.206 0.546 0.239 1.114 0.365 1.703 0.377 0.585 0.008 1.18-0.079 1.786-0.262 0.601-0.178 1.188-0.418 1.762-0.72 0.569-0.298 1.117-0.63 1.644-0.998 0.528-0.367 1.009-0.733 1.443-1.099z" fill="#d5b263" data-fill-palette-color="primary"></path><path d="M253.332 91.828v0c0.127 0.803 0.295 1.593 0.504 2.371 0.2 0.773 0.453 1.536 0.759 2.288v0c0.318 0.783 0.69 1.479 1.116 2.089 0.42 0.613 0.905 1.096 1.455 1.45 0.553 0.345 1.179 0.543 1.877 0.594 0.698 0.051 1.48-0.1 2.348-0.452v0c0.703-0.286 1.306-0.642 1.811-1.068 0.501-0.432 0.884-0.919 1.148-1.46 0.264-0.542 0.401-1.135 0.409-1.78 0.011-0.639-0.131-1.322-0.427-2.049v0c-0.273-0.672-0.646-1.23-1.118-1.672-0.463-0.439-0.989-0.777-1.577-1.015-0.591-0.244-1.226-0.396-1.906-0.455-0.676-0.067-1.355-0.073-2.037-0.016-0.688 0.059-1.359 0.171-2.011 0.337-0.65 0.172-1.247 0.368-1.79 0.589v0c-0.098 0.04-0.193 0.078-0.285 0.115-0.098 0.04-0.19 0.084-0.277 0.134zM263.43 105.024v0c-0.844 0.343-1.65 0.514-2.42 0.513-0.772-0.007-1.505-0.144-2.198-0.41-0.687-0.269-1.33-0.642-1.929-1.118-0.593-0.478-1.143-1.024-1.649-1.638-0.503-0.607-0.956-1.264-1.356-1.97-0.392-0.702-0.732-1.405-1.018-2.108v0c-0.363-0.893-0.66-1.798-0.89-2.716-0.225-0.92-0.374-1.857-0.448-2.81v0c-0.728 0.453-1.389 0.964-1.984 1.533-0.586 0.573-1.048 1.206-1.386 1.899-0.334 0.684-0.516 1.439-0.544 2.263-0.028 0.824 0.151 1.712 0.538 2.666v0c0.256 0.63 0.597 1.189 1.025 1.678 0.421 0.492 0.899 0.906 1.435 1.244 0.542 0.335 1.122 0.587 1.739 0.757 0.623 0.167 1.272 0.245 1.945 0.235v0l0.096 2.996c-1.094-0.011-2.123-0.22-3.087-0.626-0.963-0.406-1.843-0.95-2.639-1.631-0.797-0.681-1.498-1.46-2.105-2.339-0.607-0.879-1.104-1.795-1.492-2.749v0c-0.639-1.571-0.962-3.128-0.969-4.671-0.016-1.547 0.256-2.997 0.817-4.35 0.557-1.345 1.385-2.561 2.482-3.649 1.099-1.081 2.435-1.941 4.006-2.579v0c1.565-0.636 3.119-0.951 4.66-0.944 1.544 0.013 2.988 0.306 4.332 0.879 1.34 0.581 2.547 1.429 3.621 2.546 1.065 1.113 1.917 2.455 2.556 4.026v0c0.308 0.758 0.573 1.559 0.794 2.402 0.213 0.84 0.356 1.682 0.43 2.529 0.071 0.84 0.058 1.668-0.037 2.483-0.096 0.816-0.317 1.578-0.662 2.289-0.337 0.714-0.803 1.363-1.399 1.947-0.592 0.576-1.347 1.05-2.264 1.423z" fill="#d5b263" data-fill-palette-color="primary"></path><path d="M3.371 142.164c0-6.57 5.326-11.897 11.896-11.897 6.57 0 11.897 5.326 11.897 11.897 0 6.57-5.326 11.897-11.897 11.897-6.57 0-11.897-5.326-11.896-11.897z" fill="#d5b263" data-fill-palette-color="primary"></path><path d="M252.836 142.164c0-6.57 5.326-11.897 11.897-11.897 6.57 0 11.897 5.326 11.896 11.897 0 6.57-5.326 11.897-11.896 11.897-6.57 0-11.897-5.326-11.897-11.897z" fill="#d5b263" data-fill-palette-color="primary"></path></g><g id="text-1"><path d="M24.486 185.614l-12.775 4.612-2.914-8.073 29.292-10.574 7.593 21.034-3.743 1.351-4.679-12.961-9.05 3.267 3.613 10.01-3.724 1.344z" fill="#d5b263" data-fill-palette-color="secondary"></path><path d="M49.686 229.174v0c-1.039 0.77-2.12 1.357-3.241 1.761-1.122 0.404-2.252 0.646-3.392 0.726-1.14 0.08-2.277 0.003-3.412-0.232-1.135-0.235-2.226-0.61-3.272-1.124-1.042-0.509-2.03-1.149-2.963-1.92-0.927-0.775-1.76-1.661-2.498-2.658v0c-0.739-0.997-1.342-2.049-1.809-3.156-0.462-1.111-0.785-2.24-0.968-3.386-0.183-1.145-0.222-2.295-0.117-3.449 0.106-1.154 0.363-2.265 0.772-3.332 0.409-1.067 0.973-2.08 1.691-3.039 0.714-0.965 1.586-1.828 2.615-2.59v0c1.034-0.766 2.114-1.348 3.24-1.747 1.127-0.408 2.26-0.652 3.399-0.732 1.145-0.084 2.285-0.009 3.42 0.226 1.13 0.239 2.216 0.613 3.259 1.122 1.042 0.509 2.028 1.146 2.956 1.912 0.929 0.766 1.762 1.647 2.501 2.644v0c0.739 0.997 1.341 2.054 1.807 3.17 0.466 1.117 0.791 2.248 0.974 3.394 0.187 1.151 0.231 2.301 0.13 3.451-0.106 1.154-0.366 2.267-0.78 3.338-0.409 1.067-0.973 2.08-1.691 3.039-0.713 0.955-1.587 1.816-2.621 2.582zM45.261 223.2v0c0.557-0.412 1.122-0.88 1.695-1.403 0.573-0.523 1.1-1.082 1.58-1.676 0.489-0.592 0.913-1.223 1.272-1.891 0.354-0.664 0.596-1.341 0.727-2.029 0.125-0.684 0.114-1.387-0.033-2.107-0.144-0.715-0.479-1.428-1.005-2.138v0c-0.495-0.668-1.064-1.17-1.708-1.507-0.64-0.331-1.312-0.535-2.018-0.612-0.711-0.073-1.443-0.036-2.196 0.112-0.749 0.153-1.48 0.369-2.192 0.65-0.721 0.28-1.412 0.611-2.073 0.994-0.656 0.379-1.251 0.767-1.786 1.163v0c-0.53 0.393-1.075 0.85-1.634 1.371-0.559 0.521-1.077 1.085-1.554 1.693-0.487 0.607-0.909 1.245-1.269 1.913-0.355 0.674-0.599 1.359-0.731 2.057-0.137 0.701-0.141 1.406-0.01 2.115 0.134 0.714 0.449 1.404 0.944 2.072v0c0.515 0.695 1.095 1.217 1.741 1.569 0.642 0.346 1.315 0.561 2.02 0.647 0.706 0.077 1.426 0.04 2.16-0.11 0.729-0.146 1.453-0.366 2.172-0.66 0.722-0.289 1.412-0.627 2.069-1.016 0.662-0.392 1.272-0.794 1.829-1.207z" fill="#d5b263" data-fill-palette-color="secondary"></path><path d="M80.824 252.891v0c-0.75 1.054-1.595 1.947-2.537 2.679-0.941 0.732-1.941 1.312-2.999 1.742-1.059 0.43-2.164 0.708-3.316 0.836-1.152 0.128-2.305 0.11-3.46-0.055-1.149-0.161-2.286-0.464-3.411-0.907-1.122-0.45-2.188-1.034-3.2-1.753v0c-1.011-0.719-1.91-1.533-2.697-2.441-0.784-0.914-1.44-1.887-1.97-2.919-0.529-1.032-0.922-2.114-1.179-3.244-0.257-1.13-0.356-2.266-0.299-3.407 0.058-1.141 0.28-2.279 0.667-3.413 0.38-1.139 0.942-2.229 1.683-3.273v0c0.746-1.049 1.592-1.937 2.539-2.665 0.945-0.737 1.947-1.32 3.005-1.749 1.062-0.435 2.17-0.716 3.322-0.845 1.148-0.123 2.297-0.104 3.446 0.057 1.149 0.161 2.283 0.462 3.403 0.902 1.12 0.44 2.186 1.02 3.197 1.739v0c1.011 0.719 1.911 1.537 2.7 2.455 0.789 0.917 1.448 1.892 1.978 2.924 0.535 1.036 0.932 2.117 1.193 3.242 0.257 1.13 0.355 2.269 0.293 3.415-0.058 1.141-0.28 2.279-0.666 3.413-0.382 1.129-0.946 2.218-1.692 3.267zM74.765 248.583v0c0.402-0.565 0.794-1.185 1.177-1.86 0.383-0.675 0.711-1.369 0.983-2.083 0.282-0.715 0.489-1.446 0.624-2.192 0.13-0.741 0.151-1.459 0.062-2.154-0.093-0.69-0.321-1.354-0.684-1.993-0.358-0.635-0.897-1.209-1.618-1.722v0c-0.678-0.482-1.375-0.783-2.091-0.903-0.711-0.117-1.413-0.102-2.108 0.043-0.699 0.151-1.383 0.413-2.054 0.787-0.665 0.377-1.293 0.81-1.882 1.298-0.599 0.489-1.153 1.018-1.663 1.586-0.506 0.563-0.952 1.117-1.338 1.66v0c-0.382 0.538-0.759 1.141-1.129 1.809-0.37 0.668-0.688 1.365-0.953 2.092-0.275 0.728-0.479 1.465-0.613 2.212-0.129 0.751-0.148 1.478-0.058 2.182 0.087 0.709 0.302 1.381 0.646 2.014 0.349 0.637 0.862 1.196 1.539 1.678v0c0.705 0.501 1.418 0.818 2.142 0.952 0.718 0.13 1.425 0.126 2.12-0.011 0.695-0.146 1.368-0.404 2.021-0.774 0.648-0.365 1.268-0.799 1.86-1.301 0.597-0.498 1.148-1.034 1.653-1.606 0.508-0.578 0.963-1.149 1.364-1.714z" fill="#d5b263" data-fill-palette-color="secondary"></path><path d="M123.148 244.987l-10.387 32.555-2.679-0.854-1.444-6.155c-0.577 0.765-1.241 1.415-1.994 1.951-0.751 0.529-1.552 0.935-2.404 1.217-0.858 0.28-1.746 0.423-2.662 0.429-0.918 0.012-1.836-0.129-2.754-0.421v0c-1.817-0.58-3.336-1.421-4.557-2.524-1.223-1.097-2.149-2.362-2.779-3.797-0.636-1.436-0.974-2.995-1.012-4.676-0.04-1.675 0.215-3.378 0.767-5.107v0c0.554-1.735 1.332-3.274 2.336-4.616 1.003-1.342 2.179-2.412 3.527-3.208 1.342-0.798 2.83-1.293 4.464-1.485 1.634-0.192 3.359 0.002 5.177 0.581v0c1.383 0.441 2.57 1.118 3.56 2.03 0.993 0.906 1.719 2.059 2.18 3.459v0l3.701-11.599zM109.539 263.443v0c0.177-0.553 0.329-1.173 0.458-1.86 0.129-0.686 0.213-1.394 0.252-2.122 0.032-0.731 0.004-1.457-0.085-2.178-0.087-0.727-0.259-1.402-0.517-2.025-0.263-0.631-0.624-1.183-1.083-1.655-0.465-0.474-1.053-0.824-1.764-1.051v0c-0.786-0.251-1.513-0.327-2.182-0.229-0.662 0.1-1.276 0.32-1.841 0.66-0.559 0.341-1.073 0.78-1.542 1.316-0.467 0.53-0.883 1.107-1.249 1.731-0.366 0.625-0.688 1.266-0.968 1.926-0.273 0.661-0.507 1.296-0.701 1.906v0c-0.193 0.604-0.369 1.254-0.529 1.951-0.154 0.699-0.263 1.409-0.327 2.13-0.064 0.721-0.061 1.439 0.009 2.154 0.072 0.709 0.237 1.364 0.495 1.966 0.263 0.61 0.636 1.145 1.12 1.604 0.488 0.467 1.125 0.827 1.911 1.077v0c0.78 0.249 1.508 0.332 2.185 0.25 0.679-0.088 1.306-0.304 1.88-0.647 0.565-0.339 1.081-0.771 1.545-1.294 0.465-0.524 0.881-1.101 1.249-1.732 0.37-0.637 0.692-1.289 0.967-1.956 0.282-0.665 0.521-1.306 0.717-1.922z" fill="#d5b263" data-fill-palette-color="secondary"></path><path d="M156.831 269.709v0c0.015 1.34-0.139 2.523-0.464 3.55-0.331 1.027-0.796 1.92-1.395 2.679-0.605 0.753-1.324 1.388-2.156 1.905-0.832 0.511-1.738 0.924-2.718 1.239-0.986 0.315-2.03 0.545-3.131 0.689-1.101 0.138-2.222 0.214-3.363 0.227v0c-1.498 0.017-2.882-0.079-4.151-0.289-1.276-0.203-2.475-0.543-3.596-1.018-1.121-0.469-2.2-1.08-3.238-1.834-1.045-0.747-2.085-1.662-3.12-2.746v0l4.363-4.535c0.414 0.992 0.979 1.906 1.695 2.743 0.716 0.837 1.499 1.554 2.351 2.151 0.852 0.591 1.731 1.056 2.639 1.395 0.915 0.333 1.774 0.495 2.58 0.485v0c0.957-0.011 1.85-0.09 2.68-0.238 0.837-0.142 1.563-0.374 2.18-0.698 0.617-0.324 1.097-0.752 1.44-1.284 0.35-0.532 0.521-1.194 0.512-1.986v0c-0.007-0.607-0.151-1.124-0.433-1.549-0.276-0.432-0.636-0.801-1.082-1.106-0.439-0.305-0.944-0.563-1.514-0.775-0.563-0.205-1.136-0.38-1.719-0.525-0.589-0.145-1.165-0.277-1.727-0.396-0.562-0.112-1.062-0.232-1.499-0.359v0c-0.854-0.234-1.741-0.488-2.662-0.762-0.927-0.267-1.841-0.576-2.743-0.928-0.895-0.353-1.744-0.759-2.548-1.219-0.81-0.459-1.52-1.006-2.127-1.639-0.614-0.633-1.108-1.37-1.481-2.21-0.366-0.841-0.555-1.809-0.568-2.904v0c-0.015-1.313 0.133-2.48 0.445-3.5 0.312-1.02 0.76-1.906 1.346-2.659 0.579-0.759 1.268-1.397 2.067-1.914 0.806-0.524 1.689-0.947 2.649-1.268 0.967-0.321 1.993-0.557 3.08-0.708 1.081-0.144 2.192-0.223 3.334-0.236v0c1.557-0.018 2.974 0.108 4.251 0.377 1.284 0.276 2.469 0.675 3.558 1.196 1.082 0.522 2.079 1.148 2.991 1.877 0.906 0.735 1.763 1.551 2.573 2.446v0l-4.364 4.524c-0.355-1.032-0.844-1.964-1.467-2.795-0.623-0.824-1.314-1.533-2.074-2.124-0.753-0.592-1.543-1.045-2.372-1.359-0.822-0.314-1.616-0.467-2.381-0.458v0c-0.996 0.011-1.913 0.091-2.749 0.239-0.83 0.148-1.543 0.381-2.141 0.698-0.597 0.317-1.057 0.738-1.381 1.263-0.324 0.532-0.481 1.187-0.472 1.966v0c0.007 0.62 0.135 1.147 0.384 1.579 0.249 0.426 0.58 0.789 0.992 1.088 0.419 0.299 0.887 0.541 1.405 0.726 0.524 0.192 1.063 0.357 1.619 0.497 0.556 0.139 1.105 0.258 1.647 0.357 0.542 0.099 1.039 0.213 1.489 0.339v0c0.867 0.234 1.778 0.485 2.731 0.751 0.953 0.26 1.894 0.569 2.823 0.928 0.928 0.359 1.814 0.771 2.657 1.237 0.837 0.466 1.576 1.021 2.217 1.668 0.641 0.653 1.155 1.406 1.54 2.259 0.386 0.847 0.585 1.828 0.598 2.943z" fill="#d5b263" data-fill-palette-color="secondary"></path><path d="M182.728 255.912l1.382 15.676-6.167 2.275-15.06-21.066 6.863-2.532 10.072 14.95-2.707-17.666 6.167-2.275 10.32 15.365-2.267-18.335 4.755-1.754 1.538 26.054-6.167 2.274z" fill="#d5b263" data-fill-palette-color="secondary"></path><path d="M206.131 226.234v0c0.313 0.45 0.522 0.935 0.627 1.457 0.109 0.527 0.119 1.038 0.029 1.535-0.091 0.505-0.277 0.984-0.557 1.436-0.29 0.45-0.659 0.832-1.109 1.144v0c-0.45 0.313-0.931 0.522-1.443 0.63-0.516 0.102-1.027 0.107-1.532 0.016-0.496-0.089-0.972-0.277-1.428-0.563-0.452-0.28-0.835-0.646-1.147-1.095v0c-0.313-0.45-0.52-0.933-0.621-1.449-0.102-0.516-0.11-1.025-0.024-1.526 0.091-0.505 0.276-0.979 0.554-1.423 0.275-0.448 0.637-0.829 1.087-1.141v0c0.45-0.313 0.938-0.524 1.465-0.633 0.518-0.111 1.029-0.121 1.535-0.03 0.5 0.095 0.974 0.279 1.422 0.555 0.448 0.275 0.829 0.637 1.142 1.087zM209.32 231.395l14.244 20.492-6.023 4.187-14.244-20.492z" fill="#d5b263" data-fill-palette-color="secondary"></path><path d="M244.369 211.806v0c1.371 1.189 2.476 2.509 3.314 3.961 0.843 1.456 1.369 2.96 1.577 4.512 0.204 1.557 0.073 3.125-0.395 4.702-0.473 1.573-1.334 3.08-2.583 4.521v0c-0.951 1.097-2.041 1.921-3.27 2.471-1.224 0.546-2.568 0.761-4.031 0.645v0l10.957 9.501-4.786 5.519-27.576-23.91 1.842-2.124 6.225 1.1c-0.481-0.836-0.818-1.705-1.013-2.608-0.2-0.907-0.26-1.806-0.178-2.696 0.081-0.899 0.297-1.773 0.648-2.622 0.351-0.848 0.843-1.637 1.474-2.364v0c1.249-1.441 2.622-2.505 4.117-3.192 1.495-0.687 3.028-1.039 4.598-1.057 1.566-0.013 3.127 0.292 4.683 0.916 1.561 0.628 3.026 1.537 4.397 2.725zM239.512 217.408v0c-0.479-0.415-1.009-0.831-1.591-1.248-0.587-0.421-1.199-0.804-1.836-1.146-0.637-0.343-1.293-0.619-1.967-0.829-0.67-0.214-1.337-0.321-2.002-0.32-0.655 0-1.296 0.134-1.922 0.403-0.626 0.269-1.206 0.71-1.738 1.324v0c-0.545 0.628-0.908 1.269-1.091 1.923-0.183 0.654-0.232 1.31-0.147 1.969 0.094 0.658 0.289 1.303 0.587 1.937 0.302 0.629 0.668 1.234 1.097 1.816 0.43 0.582 0.895 1.134 1.395 1.655 0.505 0.525 1.002 1 1.491 1.424v0c0.434 0.376 0.943 0.761 1.528 1.154 0.585 0.393 1.204 0.752 1.859 1.075 0.659 0.318 1.34 0.581 2.042 0.788 0.697 0.203 1.386 0.311 2.065 0.323 0.684 0.007 1.333-0.107 1.948-0.342 0.619-0.241 1.173-0.643 1.661-1.206v0c0.54-0.623 0.897-1.262 1.071-1.915 0.173-0.653 0.214-1.304 0.121-1.952-0.094-0.658-0.294-1.303-0.601-1.936-0.303-0.638-0.669-1.248-1.099-1.831-0.435-0.587-0.902-1.14-1.403-1.661-0.5-0.521-0.99-0.989-1.468-1.405z" fill="#d5b263" data-fill-palette-color="secondary"></path><path d="M253.35 195.095v0c0.533-0.748 1.029-1.509 1.487-2.283 0.454-0.782 0.859-1.589 1.213-2.421v0c0.374-0.881 0.639-1.729 0.792-2.546 0.154-0.817 0.151-1.585-0.009-2.306-0.154-0.718-0.488-1.373-1.004-1.965-0.513-0.598-1.255-1.104-2.227-1.517v0c-0.783-0.333-1.545-0.532-2.285-0.596-0.74-0.064-1.43 0.016-2.07 0.239-0.646 0.22-1.225 0.58-1.739 1.078-0.522 0.502-0.955 1.157-1.298 1.965v0c-0.323 0.759-0.472 1.499-0.449 2.219 0.024 0.72 0.171 1.41 0.443 2.071 0.28 0.657 0.663 1.282 1.149 1.876 0.483 0.585 1.019 1.129 1.608 1.631 0.584 0.499 1.202 0.942 1.856 1.327 0.645 0.389 1.274 0.714 1.888 0.975v0c0.103 0.044 0.21 0.089 0.319 0.136 0.103 0.044 0.212 0.083 0.326 0.117zM255.864 176.586v0c0.941 0.4 1.715 0.909 2.321 1.525 0.606 0.616 1.076 1.307 1.409 2.073 0.337 0.76 0.55 1.564 0.642 2.413 0.094 0.858 0.096 1.73 0.006 2.617-0.09 0.887-0.256 1.766-0.499 2.638-0.251 0.876-0.542 1.706-0.875 2.49v0c-0.424 0.996-0.91 1.947-1.461 2.853-0.553 0.912-1.181 1.775-1.885 2.587v0c0.937 0.226 1.868 0.346 2.794 0.36 0.924 0.02 1.797-0.111 2.619-0.392 0.814-0.278 1.559-0.732 2.236-1.362 0.671-0.633 1.231-1.477 1.68-2.535v0c0.3-0.704 0.479-1.421 0.537-2.148 0.059-0.728 0.009-1.438-0.148-2.129-0.155-0.697-0.415-1.36-0.779-1.988-0.355-0.632-0.805-1.21-1.349-1.735v0l2.31-2.449c0.865 0.884 1.515 1.867 1.952 2.949 0.44 1.091 0.705 2.222 0.795 3.393 0.087 1.177 0.02 2.357-0.204 3.538-0.223 1.182-0.56 2.304-1.012 3.367v0c-0.744 1.749-1.727 3.242-2.948 4.48-1.219 1.231-2.589 2.158-4.109 2.781-1.52 0.623-3.145 0.929-4.876 0.917-1.734-0.02-3.476-0.402-5.225-1.146v0c-1.755-0.746-3.238-1.736-4.449-2.968-1.215-1.241-2.122-2.624-2.722-4.148-0.606-1.527-0.888-3.157-0.847-4.889 0.038-1.741 0.428-3.486 1.172-5.235v0c0.362-0.85 0.793-1.696 1.294-2.537 0.499-0.835 1.054-1.617 1.665-2.347 0.615-0.721 1.288-1.367 2.018-1.938 0.722-0.568 1.504-0.999 2.347-1.294 0.834-0.291 1.718-0.431 2.653-0.42 0.932 0.016 1.912 0.243 2.938 0.679z" fill="#d5b263" data-fill-palette-color="secondary"></path></g></svg></g></svg></g></svg></g></svg></g><defs></defs></svg><rect width="280" height="280" fill="none" stroke="none" visibility="hidden"></rect></g></svg></g></svg>